<svg width="24" height="24" viewBox="0 0 24 24" fill="none" xmlns="http://www.w3.org/2000/svg">
<path fill-rule="evenodd" clip-rule="evenodd" d="M15.9202 12.7988C15.9725 12.5407 16 12.2736 16 12C16 9.79086 14.2091 8 12 8C11.7264 8 11.4593 8.02746 11.2012 8.07977L12.1239 9.00251C13.6822 9.06583 14.9342 10.3178 14.9975 11.8761L15.9202 12.7988ZM9.39311 10.5143C9.14295 10.9523 9 11.4595 9 12C9 13.6569 10.3431 15 12 15C12.5405 15 13.0477 14.857 13.4857 14.6069L14.212 15.3332C13.5784 15.7545 12.8179 16 12 16C9.79086 16 8 14.2091 8 12C8 11.1821 8.24547 10.4216 8.66676 9.78799L9.39311 10.5143Z" fill="#7C7C7C"/>
<path fill-rule="evenodd" clip-rule="evenodd" d="M16.1535 17.2751L15.4191 16.5406C14.3551 17.1196 13.1985 17.5 11.9998 17.5C10.3279 17.5 8.73792 16.7599 7.36689 15.7735C5.99982 14.79 4.89281 13.5918 4.19768 12.7478C3.77332 12.2326 3.72949 12.1435 3.72949 12C3.72949 11.8565 3.77332 11.7674 4.19768 11.2522C4.86696 10.4396 5.91806 9.29863 7.21548 8.33704L6.50114 7.62271C5.16967 8.63072 4.10359 9.79349 3.42579 10.6164L3.36699 10.6876C3.03646 11.087 2.72949 11.4579 2.72949 12C2.72949 12.5421 3.03646 12.913 3.36699 13.3124L3.42579 13.3836C4.15075 14.2638 5.31989 15.5327 6.78288 16.5853C8.24191 17.635 10.0359 18.5 11.9998 18.5C13.5098 18.5 14.9194 17.9886 16.1535 17.2751ZM9.18968 6.06861C10.0696 5.71828 11.0132 5.5 11.9998 5.5C13.9637 5.5 15.7576 6.365 17.2167 7.41472C18.6796 8.46727 19.8488 9.73623 20.5737 10.6164L20.6325 10.6876C20.9631 11.087 21.27 11.4579 21.27 12C21.27 12.5421 20.9631 12.913 20.6326 13.3124L20.5737 13.3836C20.0933 13.9669 19.4177 14.721 18.5908 15.4697L17.8828 14.7617C18.6784 14.0456 19.3336 13.3164 19.8019 12.7478C20.2262 12.2326 20.27 12.1435 20.27 12C20.27 11.8565 20.2262 11.7674 19.8019 11.2522C19.1067 10.4082 17.9997 9.21001 16.6326 8.22646C15.2616 7.24007 13.6716 6.5 11.9998 6.5C11.3054 6.5 10.6251 6.62768 9.96873 6.84765L9.18968 6.06861Z" fill="#7C7C7C"/>
<path d="M5 2L21 18" stroke="#7C7C7C"/>
</svg>
